<?xml version="1.0" standalone="no"?>
<!DOCTYPE svg PUBLIC "-//W3C//DTD SVG 20010904//EN"
 "http://www.w3.org/TR/2001/REC-SVG-20010904/DTD/svg10.dtd">
<svg version="1.0" xmlns="http://www.w3.org/2000/svg"
 width="1600.000000pt" height="911.000000pt" viewBox="0 0 1600.000000 911.000000"
 preserveAspectRatio="xMidYMid meet">

<g transform="translate(0.000000,911.000000) scale(0.100000,-0.100000)"
fill="#000000" stroke="none">
<path d="M0 4555 l0 -4555 8000 0 8000 0 0 4555 0 4555 -8000 0 -8000 0 0
-4555z m10626 3356 c73 -53 79 -64 67 -129 -7 -39 -8 -110 -1 -227 11 -203 11
-491 -2 -1115 -11 -545 -12 -915 -3 -1092 l6 -127 106 100 c154 145 235 188
490 260 125 35 231 39 301 11 108 -42 182 -121 220 -232 30 -89 23 -192 -30
-400 -114 -445 -336 -882 -631 -1236 -83 -100 -313 -340 -472 -493 l-66 -63
-82 -1 c-80 -1 -82 0 -110 31 -24 27 -27 36 -21 69 7 39 8 843 1 1783 -2 296
2 665 9 845 6 176 14 604 18 950 4 347 8 689 10 760 2 72 4 146 4 165 1 19 5
39 9 45 5 5 12 29 16 52 6 40 9 44 53 57 64 20 64 20 108 -13z m3315 16 c33
-15 82 -57 96 -81 6 -11 6 -36 -1 -73 -7 -39 -6 -127 2 -287 8 -166 9 -367 2
-716 -16 -895 -19 -1224 -12 -1388 l7 -162 25 25 c76 77 209 189 256 216 131
74 378 149 495 149 113 0 176 -26 253 -104 92 -94 123 -202 102 -356 -12 -81
-81 -341 -120 -450 -133 -368 -338 -725 -586 -1016 -60 -71 -197 -216 -303
-322 l-193 -194 -81 0 c-65 -1 -86 3 -107 18 l-26 19 -5 820 c-3 451 -7 915
-9 1030 -1 116 3 381 10 590 14 413 34 1899 26 1953 -4 31 3 88 30 249 10 61
11 62 52 77 51 18 55 18 87 3z m-1720 -1927 l31 -35 -7 -100 c-8 -118 11
-1222 26 -1510 15 -311 57 -484 153 -638 55 -87 94 -126 166 -163 49 -26 64
-29 145 -28 144 2 251 56 335 169 21 28 45 71 54 96 8 24 26 73 39 109 42 113
50 194 43 430 -3 118 -7 530 -7 914 l-2 699 25 31 c22 27 31 30 94 34 79 4
123 -10 172 -56 l32 -30 0 -299 c0 -164 3 -527 5 -808 4 -501 -2 -707 -25
-822 -18 -93 -89 -312 -122 -377 -57 -113 -220 -246 -358 -292 -47 -16 -88
-19 -290 -19 -257 0 -304 7 -400 56 -130 68 -197 173 -254 404 -85 340 -137
958 -138 1640 0 215 3 434 7 487 l7 97 50 25 c41 21 63 25 120 23 65 -2 71 -4
99 -37z m-6442 -11 c48 -45 50 -67 30 -284 -17 -181 -57 -573 -62 -602 -1 -6
0 -13 3 -15 3 -1 48 15 100 36 114 48 274 141 349 205 98 82 105 89 176 175
39 47 77 85 86 86 8 0 37 -7 62 -16 66 -22 70 -46 22 -125 -98 -160 -496 -503
-728 -627 -31 -16 -61 -32 -67 -34 -14 -4 -16 -20 -32 -303 -7 -126 -13 -360
-13 -520 0 -278 1 -292 22 -330 58 -109 160 -134 310 -74 226 90 297 137 483
321 139 137 147 147 200 253 50 100 58 110 85 113 45 4 62 -15 87 -96 26 -87
29 -79 -96 -257 -129 -182 -341 -401 -476 -491 -202 -134 -467 -175 -660 -102
-154 59 -200 129 -220 343 -12 122 -5 476 17 808 9 136 14 249 11 252 -2 2
-64 -4 -138 -13 l-135 -18 -7 -169 c-10 -252 0 -521 33 -887 16 -179 29 -331
29 -337 0 -6 -17 -19 -37 -29 -46 -23 -256 -37 -272 -18 -8 9 -31 242 -31 317
0 13 -4 31 -10 39 -7 12 -15 9 -47 -16 -48 -38 -128 -86 -267 -159 -221 -117
-355 -155 -541 -155 -242 1 -348 60 -405 226 -58 168 -26 320 120 562 75 123
87 141 162 237 56 73 192 205 313 306 85 71 276 209 289 209 3 0 28 14 56 31
70 43 197 94 286 115 l75 18 -6 110 c-16 280 -97 441 -260 518 -114 53 -304
57 -442 8 -100 -35 -299 -158 -392 -242 -56 -51 -79 -56 -96 -23 -5 11 -27 50
-48 87 -36 64 -37 69 -24 100 16 38 62 82 206 197 209 166 425 239 681 228
179 -7 286 -47 409 -152 168 -144 239 -324 247 -629 2 -93 5 -171 7 -172 4 -4
258 24 263 29 2 2 10 122 19 268 24 429 35 539 56 604 26 80 39 94 90 104 75
15 104 12 128 -10z m4250 -24 c51 -32 76 -63 101 -119 36 -85 27 -191 -36
-423 -76 -278 -221 -464 -572 -727 -145 -109 -267 -184 -472 -290 -91 -46
-177 -96 -191 -110 -38 -38 -49 -106 -49 -297 0 -226 4 -242 94 -327 82 -78
126 -102 244 -133 80 -22 89 -22 205 -9 156 16 241 40 347 97 114 61 178 110
287 220 51 51 99 93 107 93 67 0 129 -98 109 -172 -8 -27 -64 -99 -118 -151
-16 -16 -109 -81 -205 -145 -163 -108 -186 -120 -335 -175 -240 -87 -350 -102
-480 -68 -141 37 -264 101 -331 173 -35 37 -132 204 -183 316 -42 93 -47 147
-32 367 18 270 45 404 117 583 34 83 55 129 140 307 224 470 675 914 1014 999
125 31 181 29 239 -9z m-8812 -2 c6 -16 8 -56 5 -90 -7 -99 13 -140 49 -97 7
8 29 24 48 34 68 34 336 127 387 134 151 19 305 -69 442 -253 l55 -75 28 56
c86 169 226 229 549 232 149 1 157 0 212 -26 67 -31 142 -98 192 -172 51 -72
111 -217 140 -333 45 -183 50 -268 40 -758 -11 -572 -11 -991 0 -1172 l9 -143
-193 0 -192 0 5 78 c3 42 11 282 17 532 13 479 8 866 -14 1215 -11 180 -16
216 -35 253 -44 87 -93 110 -231 111 -186 1 -288 -52 -319 -165 -41 -152 -76
-337 -75 -399 8 -585 3 -932 -16 -1204 -19 -280 -21 -296 -47 -342 -36 -67
-80 -93 -141 -85 -63 9 -86 33 -100 109 -18 94 -17 145 12 902 l27 700 -42
170 c-45 187 -56 214 -103 257 -62 57 -252 85 -362 53 -60 -17 -145 -63 -175
-94 -95 -100 -122 -176 -149 -418 -18 -166 -20 -243 -19 -895 1 -422 -2 -725
-8 -743 l-9 -30 -151 -3 c-129 -2 -152 0 -157 13 -3 9 -1 181 4 383 26 996 42
1879 37 2075 l-6 217 139 0 138 0 9 -27z m6731 -4 c158 -10 201 -9 322 6 111
13 146 14 175 5 57 -19 65 -39 65 -173 0 -112 -2 -121 -31 -180 -17 -34 -109
-165 -204 -292 -243 -324 -433 -615 -705 -1080 -192 -329 -271 -462 -322 -540
l-59 -90 37 -33 c60 -52 83 -54 443 -47 262 6 349 4 444 -8 113 -15 121 -14
175 4 102 35 115 19 128 -168 6 -98 6 -102 -18 -126 l-24 -24 -424 -8 c-234
-5 -456 -8 -495 -8 -38 1 -202 3 -364 5 l-294 3 -19 30 c-22 36 -23 89 -3 215
26 174 20 161 325 670 256 429 381 607 685 982 133 163 211 280 284 425 38 76
39 105 5 132 -21 17 -36 20 -83 16 -31 -3 -85 -7 -121 -10 -36 -2 -117 0 -180
5 -207 17 -253 17 -425 -1 -94 -10 -230 -17 -303 -16 -129 2 -134 3 -152 27
-31 40 -42 87 -38 161 6 106 3 105 243 119 110 6 227 12 260 14 93 6 471 -3
673 -15z m7242 -3099 c42 -21 47 -29 30 -46 -6 -6 -20 -29 -33 -52 -12 -23
-61 -97 -109 -165 -275 -391 -641 -692 -1078 -885 -112 -49 -381 -152 -399
-152 -5 0 -49 -12 -97 -26 -195 -56 -473 -96 -769 -109 -356 -17 -919 62
-1285 180 -63 20 -137 44 -165 52 -111 36 -349 151 -495 239 -302 184 -537
400 -788 720 -17 23 -32 47 -32 54 0 6 14 29 32 51 49 62 63 56 171 -73 379
-452 819 -733 1417 -907 417 -120 965 -202 1250 -187 426 24 726 113 1097 327
413 238 769 537 1059 887 37 45 75 82 85 82 9 0 19 7 23 15 8 21 39 19 86 -5z"/>
<path d="M11311 5329 c-100 -40 -167 -87 -261 -184 -36 -36 -101 -93 -145
-125 -44 -32 -109 -89 -145 -125 l-65 -67 0 -211 c0 -117 -4 -320 -9 -452 -5
-132 -5 -298 -1 -370 l7 -129 35 39 c20 22 66 72 104 112 39 40 81 86 96 103
l26 31 -31 32 c-45 47 -72 112 -71 177 1 107 50 190 145 246 43 25 59 29 130
29 74 0 85 -3 134 -33 29 -18 53 -31 54 -30 84 152 230 475 250 553 27 106 40
245 27 292 -22 81 -95 124 -208 122 -26 0 -59 -5 -72 -10z"/>
<path d="M14660 5331 c-82 -27 -146 -71 -260 -181 -41 -40 -109 -98 -150 -130
-41 -32 -106 -91 -145 -131 l-70 -74 3 -170 3 -170 78 -1 c67 0 85 -4 126 -28
95 -56 143 -137 144 -243 1 -110 -53 -199 -153 -250 -44 -22 -59 -25 -128 -21
l-78 5 0 -129 c0 -70 2 -128 5 -128 14 0 506 510 544 563 55 79 282 538 314
637 30 91 51 241 45 308 -6 58 -36 105 -81 129 -36 18 -158 27 -197 14z"/>
<path d="M4830 4631 c-85 -19 -231 -86 -335 -153 -172 -111 -353 -297 -470
-485 -108 -173 -140 -270 -116 -356 30 -106 94 -114 365 -46 183 46 267 82
452 197 l171 106 6 125 c4 70 11 221 17 336 5 116 12 229 14 253 4 49 7 48
-104 23z"/>
<path d="M9751 5710 c-115 -41 -178 -92 -317 -255 -99 -116 -208 -271 -312
-445 -58 -96 -117 -193 -132 -215 -41 -60 -101 -185 -95 -195 8 -13 52 -2 95
23 33 20 299 223 310 237 3 3 43 38 90 77 99 83 220 205 350 353 155 176 212
322 160 408 -17 27 -25 32 -57 32 -21 -1 -62 -10 -92 -20z"/>
</g>
</svg>
